<svg width="196" height="196" viewBox="0 0 196 196" fill="none" xmlns="http://www.w3.org/2000/svg">
<g clip-path="url(#clip0_120_2)">
<path d="M97.9997 194.131L65.1962 161.835C33.6317 130.76 19.0751 86.5661 25.758 43.1207C26.4204 38.8147 28.7598 34.972 32.0966 32.171L98.024 0.88923L165.666 32.171C167.895 35.0157 169.467 38.3362 170.048 41.9033C177.195 85.7393 162.663 130.469 130.803 161.835L97.9997 194.131Z" fill="#171717"/>
<path d="M99.8981 0L32.0966 32.171C28.7598 34.972 26.4204 38.8147 25.758 43.1207C19.0751 86.5661 33.6317 130.76 65.1962 161.835L99.8981 196M96.1012 0L165.666 32.171C167.895 35.0157 169.467 38.3362 170.048 41.9033C177.195 85.7393 162.663 130.469 130.803 161.835L96.1012 196" stroke="#B2ADAD" stroke-width="5.63836"/>
<path d="M97.5127 20.4785C109.663 20.4785 119.526 30.299 119.526 42.4297C119.526 54.5603 109.663 64.3809 97.5127 64.3809C85.3629 64.3807 75.5001 54.5602 75.5 42.4297C75.5 30.2991 85.3629 20.4787 97.5127 20.4785Z" fill="#FF0000" stroke="#BF0000" stroke-width="5"/>
<ellipse cx="97.513" cy="90.1737" rx="19.513" ry="19.451" fill="#636363"/>
<ellipse cx="97.513" cy="137.916" rx="19.513" ry="19.451" fill="#636363"/>
</g>
<defs>
<clipPath id="clip0_120_2">
<rect width="196" height="196" fill="white"/>
</clipPath>
</defs>
</svg>
